ffmpeg version 4.2.7-0ubuntu0.1 Copyright (c) 2000-2022 the FFmpeg developers
  built with gcc 9 (Ubuntu 9.4.0-1ubuntu1~20.04.1)
  configuration: --prefix=/usr --extra-version=0ubuntu0.1 --toolchain=hardened --libdir=/usr/lib/x86_64-linux-gnu --incdir=/usr/include/x86_64-linux-gnu --arch=amd64 --enable-gpl --disable-stripping --enable-avresample --disable-filter=resample --enable-avisynth --enable-gnutls --enable-ladspa --enable-libaom --enable-libass --enable-libbluray --enable-libbs2b --enable-libcaca --enable-libcdio --enable-libcodec2 --enable-libflite --enable-libfontconfig --enable-libfreetype --enable-libfribidi --enable-libgme --enable-libgsm --enable-libjack --enable-libmp3lame --enable-libmysofa --enable-libopenjpeg --enable-libopenmpt --enable-libopus --enable-libpulse --enable-librsvg --enable-librubberband --enable-libshine --enable-libsnappy --enable-libsoxr --enable-libspeex --enable-libssh --enable-libtheora --enable-libtwolame --enable-libvidstab --enable-libvorbis --enable-libvpx --enable-libwavpack --enable-libwebp --enable-libx265 --enable-libxml2 --enable-libxvid --enable-libzmq --enable-libzvbi --enable-lv2 --enable-omx --enable-openal --enable-opencl --enable-opengl --enable-sdl2 --enable-libdc1394 --enable-libdrm --enable-libiec61883 --enable-nvenc --enable-chromaprint --enable-frei0r --enable-libx264 --enable-shared
  libavutil      56. 31.100 / 56. 31.100
  libavcodec     58. 54.100 / 58. 54.100
  libavformat    58. 29.100 / 58. 29.100
  libavdevice    58.  8.100 / 58.  8.100
  libavfilter     7. 57.100 /  7. 57.100
  libavresample   4.  0.  0 /  4.  0.  0
  libswscale      5.  5.100 /  5.  5.100
  libswresample   3.  5.100 /  3.  5.100
  libpostproc    55.  5.100 / 55.  5.100
Routing option strict to both codec and muxer layer
[h264 @ 0x55897e770000] Reinit context to 640x352, pix_fmt: yuv420p
Input #0, mov,mp4,m4a,3gp,3g2,mj2, from '/var/www/html/project/media/video/original/VID-20230601-WA0004.mp4':
  Metadata:
    major_brand     : mp42
    minor_version   : 0
    compatible_brands: mp42isom
  Duration: 00:00:09.54, start: 0.000000, bitrate: 2278 kb/s
    Stream #0:0(und): Video: h264 (High), 1 reference frame (avc1 / 0x31637661), yuv420p(tv, left), 640x352, 2021 kb/s, 30.03 fps, 120 tbr, 90k tbn, 180k tbc (default)
    Metadata:
      rotate          : 90
    Side data:
      displaymatrix: rotation of -90.00 degrees
    Stream #0:1(und): Audio: aac (LC) (mp4a / 0x6134706D), 48000 Hz, stereo, fltp, 256 kb/s (default)
Input #1, png_pipe, from '/var/www/html/project/static/images/templates/logo_vertical.png':
  Duration: N/A, bitrate: N/A
    Stream #1:0: Video: png, 1 reference frame, rgba(pc), 1920x1080 [SAR 2835:2835 DAR 16:9], 25 tbr, 25 tbn, 25 tbc
[Parsed_scale_1 @ 0x55897e79c2c0] w:1280 h:720 flags:'bilinear' interl:0
[Parsed_scale_4 @ 0x55897e84f3c0] w:-1 h:720 flags:'bilinear' interl:0
[Parsed_scale_6 @ 0x55897e85c9c0] w:1280 h:720 flags:'bilinear' interl:0
Stream mapping:
  Stream #0:0 (h264) -> split (graph 0)
  Stream #1:0 (png) -> scale (graph 0)
  overlay (graph 0) -> Stream #0:0 (libx264)
  Stream #0:1 -> #0:1 (aac (native) -> aac (native))
Press [q] to stop, [?] for help
[h264 @ 0x55897e7cca80] Reinit context to 640x352, pix_fmt: yuv420p
[Parsed_scale_1 @ 0x55897e86db80] w:1280 h:720 flags:'bilinear' interl:0
[Parsed_scale_4 @ 0x55897ecbf500] w:-1 h:720 flags:'bilinear' interl:0
[Parsed_scale_6 @ 0x55897ecc0c80] w:1280 h:720 flags:'bilinear' interl:0
[graph 0 input from stream 0:0 @ 0x55897ecc4100] w:640 h:352 pixfmt:yuv420p tb:1/90000 fr:120/1 sar:0/1 sws_param:flags=2
[graph 0 input from stream 1:0 @ 0x55897ecc59c0] w:1920 h:1080 pixfmt:rgba tb:1/25 fr:25/1 sar:2835/2835 sws_param:flags=2
[transpose @ 0x55897ecc4e00] w:640 h:352 dir:1 -> w:352 h:640 rotation:clockwise vflip:0
[Parsed_scale_1 @ 0x55897e86db80] w:352 h:640 fmt:yuv420p sar:0/1 -> w:1280 h:720 fmt:yuv420p sar:0/1 flags:0x2
[Parsed_boxblur_2 @ 0x55897ecbd7c0] luma_radius:36 luma_power:1 chroma_radius:18 chroma_power:1 alpha_radius:36 alpha_power:1 w:1280 chroma_w:640 h:720 chroma_h:360
[Parsed_setsar_3 @ 0x55897ecbe780] w:1280 h:720 sar:0/1 dar:16/9 -> sar:1/1 dar:16/9
[Parsed_scale_4 @ 0x55897ecbf500] w:352 h:640 fmt:yuv420p sar:0/1 -> w:396 h:720 fmt:yuva420p sar:0/1 flags:0x2
[Parsed_setsar_5 @ 0x55897ecc0080] w:396 h:720 sar:0/1 dar:11/20 -> sar:1/1 dar:11/20
[Parsed_overlay_8 @ 0x55897ecc2400] main w:1280 h:720 fmt:yuv420p overlay w:396 h:720 fmt:yuva420p
[Parsed_overlay_8 @ 0x55897ecc2400] [framesync @ 0x55897ecc2528] Selected 1/90000 time base
[Parsed_overlay_8 @ 0x55897ecc2400] [framesync @ 0x55897ecc2528] Sync level 2
[Parsed_scale_6 @ 0x55897ecc0c80] w:1920 h:1080 fmt:rgba sar:2835/2835 -> w:1280 h:720 fmt:yuva420p sar:1/1 flags:0x2
[Parsed_setsar_7 @ 0x55897ecc17c0] w:1280 h:720 sar:1/1 dar:16/9 -> sar:1/1 dar:16/9
[Parsed_overlay_9 @ 0x55897ecc32c0] main w:1280 h:720 fmt:yuv420p overlay w:1280 h:720 fmt:yuva420p
[Parsed_overlay_9 @ 0x55897ecc32c0] [framesync @ 0x55897ecc3428] Selected 1/90000 time base
[Parsed_overlay_9 @ 0x55897ecc32c0] [framesync @ 0x55897ecc3428] Sync level 2
[libx264 @ 0x55897e84e840] using SAR=1/1
[libx264 @ 0x55897e84e840] using cpu capabilities: MMX2 SSE2Fast SSSE3 SSE4.2 AVX FMA3 BMI2 AVX2
[libx264 @ 0x55897e84e840] profile High, level 4.2
[libx264 @ 0x55897e84e840] 264 - core 155 r2917 0a84d98 - H.264/MPEG-4 AVC codec - Copyleft 2003-2018 - http://www.videolan.org/x264.html - options: cabac=1 ref=1 deblock=1:0:0 analyse=0x3:0x113 me=hex subme=2 psy=1 psy_rd=1.00:0.00 mixed_ref=0 me_range=16 chroma_me=1 trellis=0 8x8dct=1 cqm=0 deadzone=21,11 fast_pskip=1 chroma_qp_offset=0 threads=22 lookahead_threads=5 sliced_threads=0 nr=0 decimate=1 interlaced=0 bluray_compat=0 constrained_intra=0 bframes=3 b_pyramid=2 b_adapt=1 b_bias=0 direct=1 weightb=1 open_gop=0 weightp=1 keyint=250 keyint_min=25 scenecut=40 intra_refresh=0 rc_lookahead=10 rc=crf mbtree=1 crf=18.0 qcomp=0.60 qpmin=0 qpmax=69 qpstep=4 ip_ratio=1.40 aq=1:1.00
[graph_1_in_0_1 @ 0x5589819d3f00] tb:1/48000 samplefmt:fltp samplerate:48000 chlayout:0x3
Output #0, mp4, to '/var/www/html/project/media/video/watermarks/VID-20230601-WA0004.mp4':
  Metadata:
    major_brand     : mp42
    minor_version   : 0
    compatible_brands: mp42isom
    encoder         : Lavf58.29.100
    Stream #0:0: Video: h264 (libx264), 1 reference frame (avc1 / 0x31637661), yuv420p(progressive), 1280x720 [SAR 1:1 DAR 16:9], q=-1--1, 120 fps, 15360 tbn, 120 tbc (default)
    Metadata:
      encoder         : Lavc58.54.100 libx264
    Side data:
      cpb: bitrate max/min/avg: 0/0/0 buffer size: 0 vbv_delay: -1
    Stream #0:1(und): Audio: aac (LC) (mp4a / 0x6134706D), 48000 Hz, stereo, fltp, delay 1024, 128 kb/s (default)
    Metadata:
      encoder         : Lavc58.54.100 aac
[Parsed_overlay_8 @ 0x55897ecc2400] [framesync @ 0x55897ecc2528] Sync level 1
[Parsed_overlay_8 @ 0x55897ecc2400] [framesync @ 0x55897ecc2528] Sync level 0
[Parsed_overlay_9 @ 0x55897ecc32c0] [framesync @ 0x55897ecc3428] Sync level 0
No more output streams to write to, finishing.
frame=  286 fps= 35 q=-1.0 Lsize=    3329kB time=00:00:09.53 bitrate=2860.0kbits/s speed=1.15x    
[AVIOContext @ 0x55897e76e280] Statistics: 0 seeks, 17 writeouts
video:3166kB audio:151kB subtitle:0kB other streams:0kB global headers:0kB muxing overhead: 0.351935%
Input file #0 (/var/www/html/project/media/video/original/VID-20230601-WA0004.mp4):
  Input stream #0:0 (video): 286 packets read (2406380 bytes); 286 frames decoded; 
  Input stream #0:1 (audio): 447 packets read (305303 bytes); 447 frames decoded (457728 samples); 
  Total: 733 packets (2711683 bytes) demuxed
Input file #1 (/var/www/html/project/static/images/templates/logo_vertical.png):
  Input stream #1:0 (video): 1 packets read (93903 bytes); 1 frames decoded; 
  Total: 1 packets (93903 bytes) demuxed
Output file #0 (/var/www/html/project/media/video/watermarks/VID-20230601-WA0004.mp4):
  Output stream #0:0 (video): 286 frames encoded; 286 packets muxed (3242111 bytes); 
  Output stream #0:1 (audio): 447 frames encoded (457728 samples); 448 packets muxed (155107 bytes); 
  Total: 734 packets (3397218 bytes) muxed
[AVIOContext @ 0x55897e85d600] Statistics: 2 seeks, 16 writeouts
[libx264 @ 0x55897e84e840] frame I:2     Avg QP:17.71  size: 39981
[libx264 @ 0x55897e84e840] frame P:75    Avg QP:18.47  size: 22127
[libx264 @ 0x55897e84e840] frame B:209   Avg QP:19.37  size:  7186
[libx264 @ 0x55897e84e840] consecutive B-frames:  1.4%  1.4%  6.3% 90.9%
[libx264 @ 0x55897e84e840] mb I  I16..4: 27.5% 50.3% 22.2%
[libx264 @ 0x55897e84e840] mb P  I16..4: 22.5% 28.0%  4.4%  P16..4: 18.9% 11.9%  5.6%  0.0%  0.0%    skip: 8.7%
[libx264 @ 0x55897e84e840] mb B  I16..4:  4.2%  3.4%  0.2%  B16..8: 25.0%  8.7%  0.8%  direct:10.0%  skip:47.6%  L0:41.7% L1:46.0% BI:12.4%
[libx264 @ 0x55897e84e840] 8x8 transform intra:48.9% inter:28.2%
[libx264 @ 0x55897e84e840] coded y,uvDC,uvAC intra: 31.1% 38.9% 4.3% inter: 7.8% 20.7% 0.3%
[libx264 @ 0x55897e84e840] i16 v,h,dc,p: 26% 23%  8% 43%
[libx264 @ 0x55897e84e840] i8 v,h,dc,ddl,ddr,vr,hd,vl,hu: 16% 32% 15%  5%  9%  6% 10%  4%  3%
[libx264 @ 0x55897e84e840] i4 v,h,dc,ddl,ddr,vr,hd,vl,hu: 26% 18% 16%  5%  9%  9%  7%  6%  4%
[libx264 @ 0x55897e84e840] i8c dc,h,v,p: 52% 25% 16%  7%
[libx264 @ 0x55897e84e840] Weighted P-Frames: Y:20.0% UV:1.3%
[libx264 @ 0x55897e84e840] kb/s:2722.45
[aac @ 0x55897e7a9400] Qavg: 504.155
[AVIOContext @ 0x55897e777240] Statistics: 2716394 bytes read, 0 seeks
[AVIOContext @ 0x55897e870c00] Statistics: 93903 bytes read, 0 seeks
